<?xml version="1.0" standalone="no"?>
<!DOCTYPE svg PUBLIC "-//W3C//DTD SVG 20010904//EN"
 "http://www.w3.org/TR/2001/REC-SVG-20010904/DTD/svg10.dtd">
<svg version="1.0" xmlns="http://www.w3.org/2000/svg"
 width="512.000000pt" height="512.000000pt" viewBox="0 0 512.000000 512.000000"
 preserveAspectRatio="xMidYMid meet">
<metadata>
Created by potrace 1.11, written by Peter Selinger 2001-2013
</metadata>
<g transform="translate(0.000000,512.000000) scale(0.100000,-0.100000)"
fill="#000000" stroke="none">
<path d="M0 2560 l0 -2560 2560 0 2560 0 0 2560 0 2560 -941 -2 -942 -3 -1593
-2529 c-876 -1390 -1596 -2531 -1599 -2535 -13 -11 14 46 1209 2562 652 1373
1186 2499 1186 2502 0 3 -152 4 -337 3 l-337 -3 -876 -2537 c-481 -1395 -876
-2535 -878 -2533 -2 2 1029 4990 1045 5053 l5 22 -531 0 -531 0 0 -2560z"/>
</g>
</svg>
